<svg width="400" height="300" xmlns="http://www.w3.org/2000/svg">
  <defs>
    <radialGradient id="volcanoGradient" cx="50%" cy="80%" r="60%">
      <stop offset="0%" style="stop-color:#FF5722;stop-opacity:1" />
      <stop offset="50%" style="stop-color:#D84315;stop-opacity:1" />
      <stop offset="100%" style="stop-color:#BF360C;stop-opacity:1" />
    </radialGradient>
    <linearGradient id="lavaGradient" x1="0%" y1="0%" x2="0%" y2="100%">
      <stop offset="0%" style="stop-color:#FF9800;stop-opacity:1" />
      <stop offset="100%" style="stop-color:#FF5722;stop-opacity:1" />
    </linearGradient>
  </defs>
  
  <!-- Sky -->
  <rect width="400" height="150" fill="#263238"/>
  
  <!-- Volcano shape -->
  <polygon points="50,300 150,180 200,160 250,180 350,300" fill="url(#volcanoGradient)"/>
  
  <!-- Crater -->
  <ellipse cx="200" cy="160" rx="30" ry="8" fill="#FF3D00"/>
  
  <!-- Lava flows -->
  <path d="M 180 168 Q 160 200 140 250 Q 130 280 120 300" stroke="url(#lavaGradient)" stroke-width="8" fill="none"/>
  <path d="M 220 168 Q 240 200 260 250 Q 270 280 280 300" stroke="url(#lavaGradient)" stroke-width="6" fill="none"/>
  
  <!-- Smoke/steam -->
  <ellipse cx="190" cy="140" rx="15" ry="20" fill="#757575" opacity="0.6"/>
  <ellipse cx="210" cy="130" rx="12" ry="18" fill="#9E9E9E" opacity="0.5"/>
  <ellipse cx="200" cy="110" rx="18" ry="25" fill="#BDBDBD" opacity="0.4"/>
  
  <!-- Stars -->
  <circle cx="80" cy="40" r="2" fill="white"/>
  <circle cx="320" cy="60" r="1.5" fill="white"/>
  <circle cx="150" cy="30" r="1" fill="white"/>
  <circle cx="280" cy="35" r="1.5" fill="white"/>
  
  <!-- Ground -->
  <rect y="280" width="400" height="20" fill="#424242"/>
</svg>