<svg width="400" height="300" xmlns="http://www.w3.org/2000/svg">
  <defs>
    <linearGradient id="skyGradient" x1="0%" y1="0%" x2="0%" y2="100%">
      <stop offset="0%" style="stop-color:#81C784;stop-opacity:1" />
      <stop offset="100%" style="stop-color:#C8E6C9;stop-opacity:1" />
    </linearGradient>
    <linearGradient id="waterfallGradient" x1="0%" y1="0%" x2="0%" y2="100%">
      <stop offset="0%" style="stop-color:#E3F2FD;stop-opacity:0.9" />
      <stop offset="100%" style="stop-color:#BBDEFB;stop-opacity:0.7" />
    </linearGradient>
    <linearGradient id="mountainGradient" x1="0%" y1="0%" x2="0%" y2="100%">
      <stop offset="0%" style="stop-color:#4CAF50;stop-opacity:1" />
      <stop offset="100%" style="stop-color:#2E7D32;stop-opacity:1" />
    </linearGradient>
  </defs>
  
  <!-- Sky -->
  <rect width="400" height="180" fill="url(#skyGradient)"/>
  
  <!-- Mountain backdrop -->
  <polygon points="0,180 100,80 200,60 300,90 400,100 400,300 0,300" fill="url(#mountainGradient)"/>
  
  <!-- Cliff face -->
  <polygon points="150,60 250,70 280,180 120,180" fill="#616161"/>
  
  <!-- Main waterfall -->
  <rect x="190" y="70" width="20" height="110" fill="url(#waterfallGradient)"/>
  
  <!-- Waterfall mist/spray -->
  <ellipse cx="200" cy="100" rx="15" ry="8" fill="white" opacity="0.6"/>
  <ellipse cx="200" cy="130" rx="18" ry="10" fill="white" opacity="0.5"/>
  <ellipse cx="200" cy="160" rx="22" ry="12" fill="white" opacity="0.4"/>
  
  <!-- Secondary waterfalls -->
  <rect x="160" y="90" width="8" height="90" fill="url(#waterfallGradient)" opacity="0.8"/>
  <rect x="230" y="85" width="12" height="95" fill="url(#waterfallGradient)" opacity="0.7"/>
  
  <!-- Pool at bottom -->
  <ellipse cx="200" cy="185" rx="40" ry="8" fill="#2196F3"/>
  
  <!-- Vegetation -->
  <circle cx="80" cy="160" r="12" fill="#4CAF50"/>
  <circle cx="95" cy="155" r="8" fill="#66BB6A"/>
  <circle cx="70" cy="150" r="10" fill="#388E3C"/>
  
  <circle cx="320" cy="140" r="15" fill="#4CAF50"/>
  <circle cx="340" cy="135" r="10" fill="#66BB6A"/>
  <circle cx="305" cy="130" r="12" fill="#388E3C"/>
  
  <!-- Ferns and tropical plants -->
  <path d="M 50 170 Q 60 160 70 170 Q 80 160 90 170" stroke="#4CAF50" stroke-width="3" fill="none"/>
  <path d="M 350 150 Q 360 140 370 150 Q 380 140 390 150" stroke="#4CAF50" stroke-width="3" fill="none"/>
  
  <!-- Rocks -->
  <ellipse cx="130" cy="175" rx="8" ry="5" fill="#757575"/>
  <ellipse cx="270" cy="170" rx="10" ry="6" fill="#616161"/>
  <ellipse cx="180" cy="180" rx="6" ry="4" fill="#9E9E9E"/>
  
  <!-- Ground/forest floor -->
  <rect y="180" width="400" height="120" fill="#2E7D32"/>
  
  <!-- Additional small plants -->
  <rect x="100" y="190" width="2" height="8" fill="#1B5E20"/>
  <circle cx="101" cy="188" r="3" fill="#4CAF50"/>
  
  <rect x="300" y="195" width="2" height="6" fill="#1B5E20"/>
  <circle cx="301" cy="193" r="2.5" fill="#4CAF50"/>
</svg>